ply
format ascii 1.0
comment Created by Blender 2.79 (sub 0) - www.blender.org, source file: ''
element vertex 320
property float x
property float y
property float z
property float nx
property float ny
property float nz
property uchar red
property uchar green
property uchar blue
element face 154
property list uchar uint vertex_indices
end_header
65.986839 4.913165 -0.000000 0.445489 0.890977 -0.087754 255 0 0
75.813164 0.000000 0.000000 0.445489 0.890977 -0.087754 255 0 0
65.986839 4.818759 -0.958511 0.445489 0.890977 -0.087754 255 0 0
65.986839 4.818759 -0.958511 0.445489 0.856737 -0.259888 255 0 0
75.813164 0.000000 0.000000 0.445489 0.856737 -0.259888 255 0 0
65.986839 4.539172 -1.880187 0.445489 0.856737 -0.259888 255 0 0
65.986839 4.539172 -1.880187 0.445489 0.789573 -0.422036 255 0 0
75.813164 0.000000 0.000000 0.445489 0.789573 -0.422036 255 0 0
65.986839 4.085147 -2.729609 0.445489 0.789573 -0.422036 255 0 0
65.986839 4.085147 -2.729609 0.445489 0.692067 -0.567964 255 0 0
75.813164 0.000000 0.000000 0.445489 0.692067 -0.567964 255 0 0
65.986839 3.474132 -3.474133 0.445489 0.692067 -0.567964 255 0 0
65.986839 3.474132 -3.474133 0.445489 0.567965 -0.692067 255 0 0
75.813164 0.000000 0.000000 0.445489 0.567965 -0.692067 255 0 0
65.986839 2.729608 -4.085148 0.445489 0.567965 -0.692067 255 0 0
65.986839 2.729608 -4.085148 0.445489 0.422035 -0.789573 255 0 0
75.813164 0.000000 0.000000 0.445489 0.422035 -0.789573 255 0 0
65.986839 1.880187 -4.539173 0.445489 0.422035 -0.789573 255 0 0
65.986839 1.880187 -4.539173 0.445489 0.259888 -0.856737 255 0 0
75.813164 0.000000 0.000000 0.445489 0.259888 -0.856737 255 0 0
65.986839 0.958511 -4.818760 0.445489 0.259888 -0.856737 255 0 0
65.986839 0.958511 -4.818760 0.445489 0.087753 -0.890977 255 0 0
75.813164 0.000000 0.000000 0.445489 0.087753 -0.890977 255 0 0
65.986839 0.000000 -4.913165 0.445489 0.087753 -0.890977 255 0 0
65.986839 0.000000 -4.913165 0.445489 -0.087753 -0.890977 255 0 0
75.813164 0.000000 0.000000 0.445489 -0.087753 -0.890977 255 0 0
65.986839 -0.958510 -4.818760 0.445489 -0.087753 -0.890977 255 0 0
65.986839 -0.958510 -4.818760 0.445489 -0.259889 -0.856737 255 0 0
75.813164 0.000000 0.000000 0.445489 -0.259889 -0.856737 255 0 0
65.986839 -1.880186 -4.539173 0.445489 -0.259889 -0.856737 255 0 0
65.986839 -1.880186 -4.539173 0.445489 -0.422035 -0.789573 255 0 0
75.813164 0.000000 0.000000 0.445489 -0.422035 -0.789573 255 0 0
65.986839 -2.729608 -4.085148 0.445489 -0.422035 -0.789573 255 0 0
65.986839 -2.729608 -4.085148 0.445489 -0.567965 -0.692067 255 0 0
75.813164 0.000000 0.000000 0.445489 -0.567965 -0.692067 255 0 0
65.986839 -3.474132 -3.474133 0.445489 -0.567965 -0.692067 255 0 0
65.986839 -3.474132 -3.474133 0.445489 -0.692067 -0.567965 255 0 0
75.813164 0.000000 0.000000 0.445489 -0.692067 -0.567965 255 0 0
65.986839 -4.085147 -2.729608 0.445489 -0.692067 -0.567965 255 0 0
65.986839 -4.085147 -2.729608 0.445489 -0.789573 -0.422035 255 0 0
75.813164 0.000000 0.000000 0.445489 -0.789573 -0.422035 255 0 0
65.986839 -4.539173 -1.880186 0.445489 -0.789573 -0.422035 255 0 0
65.986839 -4.539173 -1.880186 0.445489 -0.856737 -0.259888 255 0 0
75.813164 0.000000 0.000000 0.445489 -0.856737 -0.259888 255 0 0
65.986839 -4.818760 -0.958510 0.445489 -0.856737 -0.259888 255 0 0
65.986839 -4.818760 -0.958510 0.445489 -0.890977 -0.087753 255 0 0
75.813164 0.000000 0.000000 0.445489 -0.890977 -0.087753 255 0 0
65.986839 -4.913165 0.000001 0.445489 -0.890977 -0.087753 255 0 0
65.986839 -4.913165 0.000001 0.445488 -0.890977 0.087754 255 0 0
75.813164 0.000000 0.000000 0.445488 -0.890977 0.087754 255 0 0
65.986839 -4.818759 0.958512 0.445488 -0.890977 0.087754 255 0 0
65.986839 -4.818759 0.958512 0.445489 -0.856737 0.259888 255 0 0
75.813164 0.000000 0.000000 0.445489 -0.856737 0.259888 255 0 0
65.986839 -4.539171 1.880188 0.445489 -0.856737 0.259888 255 0 0
65.986839 -4.539171 1.880188 0.445488 -0.789573 0.422036 255 0 0
75.813164 0.000000 0.000000 0.445488 -0.789573 0.422036 255 0 0
65.986839 -4.085145 2.729610 0.445488 -0.789573 0.422036 255 0 0
65.986839 -4.085145 2.729610 0.445488 -0.692066 0.567965 255 0 0
75.813164 0.000000 0.000000 0.445488 -0.692066 0.567965 255 0 0
65.986839 -3.474130 3.474134 0.445488 -0.692066 0.567965 255 0 0
65.986839 -3.474130 3.474134 0.445489 -0.567964 0.692067 255 0 0
75.813164 0.000000 0.000000 0.445489 -0.567964 0.692067 255 0 0
65.986839 -2.729605 4.085148 0.445489 -0.567964 0.692067 255 0 0
65.986839 -2.729605 4.085148 0.445488 -0.422036 0.789573 255 0 0
75.813164 0.000000 0.000000 0.445488 -0.422036 0.789573 255 0 0
65.986839 -1.880183 4.539174 0.445488 -0.422036 0.789573 255 0 0
65.986839 -1.880183 4.539174 0.445488 -0.259887 0.856737 255 0 0
75.813164 0.000000 0.000000 0.445488 -0.259887 0.856737 255 0 0
65.986839 -0.958507 4.818760 0.445488 -0.259887 0.856737 255 0 0
65.986839 -0.958507 4.818760 0.445488 -0.087753 0.890977 255 0 0
75.813164 0.000000 0.000000 0.445488 -0.087753 0.890977 255 0 0
65.986839 0.000005 4.913164 0.445488 -0.087753 0.890977 255 0 0
65.986839 0.000005 4.913164 0.445488 0.087755 0.890976 255 0 0
75.813164 0.000000 0.000000 0.445488 0.087755 0.890976 255 0 0
65.986839 0.958516 4.818758 0.445488 0.087755 0.890976 255 0 0
65.986839 0.958516 4.818758 0.445488 0.259889 0.856737 255 0 0
75.813164 0.000000 0.000000 0.445488 0.259889 0.856737 255 0 0
65.986839 1.880192 4.539170 0.445488 0.259889 0.856737 255 0 0
65.986839 1.880192 4.539170 0.445488 0.422037 0.789573 255 0 0
75.813164 0.000000 0.000000 0.445488 0.422037 0.789573 255 0 0
65.986839 2.729613 4.085143 0.445488 0.422037 0.789573 255 0 0
65.986839 2.729613 4.085143 0.445488 0.567965 0.692066 255 0 0
75.813164 0.000000 0.000000 0.445488 0.567965 0.692066 255 0 0
65.986839 3.474136 3.474127 0.445488 0.567965 0.692066 255 0 0
65.986839 3.474136 3.474127 0.445488 0.692067 0.567964 255 0 0
75.813164 0.000000 0.000000 0.445488 0.692067 0.567964 255 0 0
65.986839 4.085151 2.729602 0.445488 0.692067 0.567964 255 0 0
65.986839 4.085151 2.729602 0.445489 0.789574 0.422035 255 0 0
75.813164 0.000000 0.000000 0.445489 0.789574 0.422035 255 0 0
65.986839 4.539175 1.880180 0.445489 0.789574 0.422035 255 0 0
65.986839 4.539175 1.880180 0.445488 0.856737 0.259887 255 0 0
75.813164 0.000000 0.000000 0.445488 0.856737 0.259887 255 0 0
65.986839 4.818761 0.958503 0.445488 0.856737 0.259887 255 0 0
65.986839 4.818761 0.958503 0.445488 0.890977 0.087753 255 0 0
75.813164 0.000000 0.000000 0.445488 0.890977 0.087753 255 0 0
65.986839 4.913165 -0.000000 0.445488 0.890977 0.087753 255 0 0
65.986839 4.818761 0.958503 -1.000000 0.000000 0.000000 255 0 0
65.986839 4.913165 -0.000000 -1.000000 0.000000 0.000000 255 0 0
65.986839 4.818759 -0.958511 -1.000000 0.000000 0.000000 255 0 0
65.986839 4.539172 -1.880187 -1.000000 0.000000 0.000000 255 0 0
65.986839 4.085147 -2.729609 -1.000000 0.000000 0.000000 255 0 0
65.986839 3.474132 -3.474133 -1.000000 0.000000 0.000000 255 0 0
65.986839 2.729608 -4.085148 -1.000000 0.000000 0.000000 255 0 0
65.986839 1.880187 -4.539173 -1.000000 0.000000 0.000000 255 0 0
65.986839 0.958511 -4.818760 -1.000000 0.000000 0.000000 255 0 0
65.986839 0.000000 -4.913165 -1.000000 0.000000 0.000000 255 0 0
65.986839 -0.958510 -4.818760 -1.000000 0.000000 0.000000 255 0 0
65.986839 -1.880186 -4.539173 -1.000000 0.000000 0.000000 255 0 0
65.986839 -2.729608 -4.085148 -1.000000 0.000000 0.000000 255 0 0
65.986839 -3.474132 -3.474133 -1.000000 0.000000 0.000000 255 0 0
65.986839 -4.085147 -2.729608 -1.000000 0.000000 0.000000 255 0 0
65.986839 -4.539173 -1.880186 -1.000000 0.000000 0.000000 255 0 0
65.986839 -4.818760 -0.958510 -1.000000 0.000000 0.000000 255 0 0
65.986839 -4.913165 0.000001 -1.000000 0.000000 -0.000000 255 0 0
65.986839 -4.818759 0.958512 -1.000000 0.000000 -0.000000 255 0 0
65.986839 -4.539171 1.880188 -1.000000 0.000000 0.000000 255 0 0
65.986839 -4.085145 2.729610 -1.000000 0.000000 0.000000 255 0 0
65.986839 -3.474130 3.474134 -1.000000 0.000000 0.000000 255 0 0
65.986839 -2.729605 4.085148 -1.000000 0.000000 0.000000 255 0 0
65.986839 -1.880183 4.539174 -1.000000 0.000000 0.000000 255 0 0
65.986839 -0.958507 4.818760 -1.000000 0.000000 0.000000 255 0 0
65.986839 0.000005 4.913164 -1.000000 -0.000000 0.000000 255 0 0
65.986839 0.958516 4.818758 -1.000000 -0.000000 0.000000 255 0 0
65.986839 1.880192 4.539170 -1.000000 0.000000 0.000000 255 0 0
65.986839 2.729613 4.085143 -1.000000 0.000000 0.000000 255 0 0
65.986839 3.474136 3.474127 -1.000000 0.000000 0.000000 255 0 0
65.986839 4.085151 2.729602 -1.000000 0.000000 0.000000 255 0 0
65.986839 4.539175 1.880180 -1.000000 0.000000 0.000000 255 0 0
66.004761 0.996206 0.002124 -0.000000 0.995185 0.098016 255 0 0
0.004753 0.996206 0.002124 -0.000000 0.995185 0.098016 255 0 0
0.004753 0.976992 0.197214 -0.000000 0.995185 0.098016 255 0 0
66.004761 0.976992 0.197214 -0.000000 0.995185 0.098016 255 0 0
66.004761 0.976992 0.197214 0.000000 0.956940 0.290285 255 0 0
0.004753 0.976992 0.197214 0.000000 0.956940 0.290285 255 0 0
0.004753 0.920086 0.384807 0.000000 0.956940 0.290285 255 0 0
66.004761 0.920086 0.384807 0.000000 0.956940 0.290285 255 0 0
66.004761 0.920086 0.384807 0.000000 0.881921 0.471397 255 0 0
0.004753 0.920086 0.384807 0.000000 0.881921 0.471397 255 0 0
0.004753 0.827676 0.557694 0.000000 0.881921 0.471397 255 0 0
66.004761 0.827676 0.557694 0.000000 0.881921 0.471397 255 0 0
66.004761 0.827676 0.557694 -0.000000 0.773010 0.634394 255 0 0
0.004753 0.827676 0.557694 -0.000000 0.773010 0.634394 255 0 0
0.004753 0.703313 0.709231 -0.000000 0.773010 0.634394 255 0 0
66.004761 0.703313 0.709231 -0.000000 0.773010 0.634394 255 0 0
66.004761 0.703313 0.709231 -0.000000 0.634394 0.773010 255 0 0
0.004753 0.703313 0.709231 -0.000000 0.634394 0.773010 255 0 0
0.004753 0.551777 0.833594 -0.000000 0.634394 0.773010 255 0 0
66.004761 0.551777 0.833594 -0.000000 0.634394 0.773010 255 0 0
66.004761 0.551777 0.833594 0.000000 0.471396 0.881921 255 0 0
0.004753 0.551777 0.833594 0.000000 0.471396 0.881921 255 0 0
0.004753 0.378890 0.926003 0.000000 0.471396 0.881921 255 0 0
66.004761 0.378890 0.926003 0.000000 0.471396 0.881921 255 0 0
66.004761 0.378890 0.926003 0.000000 0.290285 0.956940 255 0 0
0.004753 0.378890 0.926003 0.000000 0.290285 0.956940 255 0 0
0.004753 0.191297 0.982909 0.000000 0.290285 0.956940 255 0 0
66.004761 0.191297 0.982909 0.000000 0.290285 0.956940 255 0 0
66.004761 0.191297 0.982909 -0.000000 0.098016 0.995185 255 0 0
0.004753 0.191297 0.982909 -0.000000 0.098016 0.995185 255 0 0
0.004753 -0.003793 1.002124 -0.000000 0.098016 0.995185 255 0 0
66.004761 -0.003793 1.002124 -0.000000 0.098016 0.995185 255 0 0
66.004761 -0.003793 1.002124 -0.000000 -0.098016 0.995185 255 0 0
0.004753 -0.003793 1.002124 -0.000000 -0.098016 0.995185 255 0 0
0.004753 -0.198884 0.982909 -0.000000 -0.098016 0.995185 255 0 0
66.004761 -0.198884 0.982909 -0.000000 -0.098016 0.995185 255 0 0
66.004761 -0.198884 0.982909 0.000000 -0.290285 0.956940 255 0 0
0.004753 -0.198884 0.982909 0.000000 -0.290285 0.956940 255 0 0
0.004753 -0.386477 0.926003 0.000000 -0.290285 0.956940 255 0 0
66.004761 -0.386477 0.926003 0.000000 -0.290285 0.956940 255 0 0
66.004761 -0.386477 0.926003 0.000000 -0.471396 0.881922 255 0 0
0.004753 -0.386477 0.926003 0.000000 -0.471396 0.881922 255 0 0
0.004753 -0.559364 0.833594 0.000000 -0.471396 0.881922 255 0 0
66.004761 -0.559364 0.833594 0.000000 -0.471396 0.881922 255 0 0
66.004761 -0.559364 0.833594 -0.000000 -0.634394 0.773010 255 0 0
0.004753 -0.559364 0.833594 -0.000000 -0.634394 0.773010 255 0 0
0.004753 -0.710900 0.709231 -0.000000 -0.634394 0.773010 255 0 0
66.004761 -0.710900 0.709231 -0.000000 -0.634394 0.773010 255 0 0
66.004761 -0.710900 0.709231 0.000000 -0.773010 0.634394 255 0 0
0.004753 -0.710900 0.709231 0.000000 -0.773010 0.634394 255 0 0
0.004753 -0.835263 0.557694 0.000000 -0.773010 0.634394 255 0 0
66.004761 -0.835263 0.557694 0.000000 -0.773010 0.634394 255 0 0
66.004761 -0.835263 0.557694 0.000000 -0.881921 0.471397 255 0 0
0.004753 -0.835263 0.557694 0.000000 -0.881921 0.471397 255 0 0
0.004753 -0.927673 0.384807 0.000000 -0.881921 0.471397 255 0 0
66.004761 -0.927673 0.384807 0.000000 -0.881921 0.471397 255 0 0
66.004761 -0.927673 0.384807 -0.000000 -0.956941 0.290284 255 0 0
0.004753 -0.927673 0.384807 -0.000000 -0.956941 0.290284 255 0 0
0.004753 -0.984579 0.197214 -0.000000 -0.956941 0.290284 255 0 0
66.004761 -0.984579 0.197214 -0.000000 -0.956941 0.290284 255 0 0
66.004761 -0.984579 0.197214 -0.000000 -0.995185 0.098017 255 0 0
0.004753 -0.984579 0.197214 -0.000000 -0.995185 0.098017 255 0 0
0.004753 -1.003793 0.002123 -0.000000 -0.995185 0.098017 255 0 0
66.004761 -1.003793 0.002124 -0.000000 -0.995185 0.098017 255 0 0
66.004761 -1.003793 0.002124 0.000000 -0.995185 -0.098018 255 0 0
0.004753 -1.003793 0.002123 0.000000 -0.995185 -0.098018 255 0 0
0.004753 -0.984579 -0.192967 0.000000 -0.995185 -0.098018 255 0 0
66.004761 -0.984579 -0.192967 0.000000 -0.995185 -0.098018 255 0 0
66.004761 -0.984579 -0.192967 0.000000 -0.956940 -0.290285 255 0 0
0.004753 -0.984579 -0.192967 0.000000 -0.956940 -0.290285 255 0 0
0.004753 -0.927673 -0.380560 0.000000 -0.956940 -0.290285 255 0 0
66.004761 -0.927673 -0.380560 0.000000 -0.956940 -0.290285 255 0 0
66.004761 -0.927673 -0.380560 0.000000 -0.881921 -0.471397 255 0 0
0.004753 -0.927673 -0.380560 0.000000 -0.881921 -0.471397 255 0 0
0.004753 -0.835263 -0.553447 0.000000 -0.881921 -0.471397 255 0 0
66.004761 -0.835263 -0.553447 0.000000 -0.881921 -0.471397 255 0 0
66.004761 -0.835263 -0.553447 0.000000 -0.773010 -0.634394 255 0 0
0.004753 -0.835263 -0.553447 0.000000 -0.773010 -0.634394 255 0 0
0.004753 -0.710900 -0.704983 0.000000 -0.773010 -0.634394 255 0 0
66.004761 -0.710900 -0.704983 0.000000 -0.773010 -0.634394 255 0 0
66.004761 -0.710900 -0.704983 0.000000 -0.634393 -0.773011 255 0 0
0.004753 -0.710900 -0.704983 0.000000 -0.634393 -0.773011 255 1 1
0.004753 -0.559363 -0.829346 0.000000 -0.634393 -0.773011 255 1 1
66.004761 -0.559363 -0.829346 0.000000 -0.634393 -0.773011 255 0 0
66.004761 -0.559363 -0.829346 0.000000 -0.471396 -0.881922 255 0 0
0.004753 -0.559363 -0.829346 0.000000 -0.471396 -0.881922 255 0 0
0.004753 -0.386476 -0.921756 0.000000 -0.471396 -0.881922 255 0 0
66.004761 -0.386476 -0.921756 0.000000 -0.471396 -0.881922 255 0 0
66.004761 -0.386476 -0.921756 0.000000 -0.290284 -0.956941 255 0 0
0.004753 -0.386476 -0.921756 0.000000 -0.290284 -0.956941 255 0 0
0.004753 -0.198883 -0.978662 0.000000 -0.290284 -0.956941 255 0 0
66.004761 -0.198883 -0.978662 0.000000 -0.290284 -0.956941 255 0 0
66.004761 -0.198883 -0.978662 0.000000 -0.098016 -0.995185 255 0 0
0.004753 -0.198883 -0.978662 0.000000 -0.098016 -0.995185 255 0 0
0.004753 -0.003793 -0.997876 0.000000 -0.098016 -0.995185 255 0 0
66.004761 -0.003793 -0.997876 0.000000 -0.098016 -0.995185 255 0 0
66.004761 -0.003793 -0.997876 0.000000 0.098018 -0.995185 255 0 0
0.004753 -0.003793 -0.997876 0.000000 0.098018 -0.995185 255 0 0
0.004753 0.191298 -0.978661 0.000000 0.098018 -0.995185 255 0 0
66.004761 0.191298 -0.978661 0.000000 0.098018 -0.995185 255 0 0
66.004761 0.191298 -0.978661 0.000000 0.290286 -0.956940 255 0 0
0.004753 0.191298 -0.978661 0.000000 0.290286 -0.956940 255 0 0
0.004753 0.378891 -0.921755 0.000000 0.290286 -0.956940 255 0 0
66.004761 0.378891 -0.921755 0.000000 0.290286 -0.956940 255 0 0
66.004761 0.378891 -0.921755 0.000000 0.471398 -0.881921 255 0 0
0.004753 0.378891 -0.921755 0.000000 0.471398 -0.881921 255 0 0
0.004753 0.551778 -0.829345 0.000000 0.471398 -0.881921 255 0 0
66.004761 0.551778 -0.829345 0.000000 0.471398 -0.881921 255 0 0
66.004761 0.551778 -0.829345 0.000000 0.634394 -0.773010 255 0 0
0.004753 0.551778 -0.829345 0.000000 0.634394 -0.773010 255 0 0
0.004753 0.703314 -0.704982 0.000000 0.634394 -0.773010 255 0 0
66.004761 0.703314 -0.704982 0.000000 0.634394 -0.773010 255 0 0
66.004761 0.703314 -0.704982 0.000000 0.773011 -0.634392 255 0 0
0.004753 0.703314 -0.704982 0.000000 0.773011 -0.634392 255 0 0
0.004753 0.827677 -0.553445 0.000000 0.773011 -0.634392 255 0 0
66.004761 0.827677 -0.553445 0.000000 0.773011 -0.634392 255 0 0
66.004761 0.827677 -0.553445 0.000000 0.881922 -0.471395 255 0 0
0.004753 0.827677 -0.553445 0.000000 0.881922 -0.471395 255 0 0
0.004753 0.920086 -0.380558 0.000000 0.881922 -0.471395 255 0 0
66.004761 0.920086 -0.380558 0.000000 0.881922 -0.471395 255 0 0
0.004753 0.920086 0.384807 -1.000000 0.000000 0.000000 255 0 0
0.004753 0.976992 0.197214 -1.000000 0.000000 0.000000 255 0 0
0.004753 0.996206 0.002124 -1.000000 0.000000 0.000000 255 0 0
0.004753 0.976992 -0.192965 -1.000000 0.000000 0.000000 255 1 1
0.004753 0.920086 -0.380558 -1.000000 0.000000 0.000000 255 1 1
0.004753 0.827677 -0.553445 -1.000000 0.000000 0.000000 255 1 1
0.004753 0.703314 -0.704982 -1.000000 0.000000 0.000000 255 1 1
0.004753 0.551778 -0.829345 -1.000000 0.000000 0.000000 255 1 1
0.004753 0.378891 -0.921755 -1.000000 0.000000 0.000000 255 1 1
0.004753 0.191298 -0.978661 -1.000000 0.000000 0.000000 255 1 1
0.004753 -0.003793 -0.997876 -1.000000 0.000000 0.000000 255 0 0
0.004753 -0.198883 -0.978662 -1.000000 0.000000 0.000000 255 0 0
0.004753 -0.386476 -0.921756 -1.000000 0.000000 0.000000 255 0 0
0.004753 -0.559363 -0.829346 -1.000000 0.000000 0.000000 255 0 0
0.004753 -0.710900 -0.704983 -1.000000 0.000000 0.000000 255 0 0
0.004753 -0.835263 -0.553447 -1.000000 0.000000 0.000000 255 0 0
0.004753 -0.927673 -0.380560 -1.000000 0.000000 0.000000 255 0 0
0.004753 -0.984579 -0.192967 -1.000000 0.000000 0.000000 255 0 0
0.004753 -1.003793 0.002123 -1.000000 0.000000 0.000000 255 0 0
0.004753 -0.984579 0.197214 -1.000000 0.000000 0.000000 255 0 0
0.004753 -0.927673 0.384807 -1.000000 0.000000 0.000000 255 0 0
0.004753 -0.835263 0.557694 -1.000000 0.000000 0.000000 255 0 0
0.004753 -0.710900 0.709231 -1.000000 0.000000 0.000000 255 0 0
0.004753 -0.559364 0.833594 -1.000000 0.000000 0.000000 255 0 0
0.004753 -0.386477 0.926003 -1.000000 0.000000 0.000000 255 0 0
0.004753 -0.198884 0.982909 -1.000000 0.000000 0.000000 255 0 0
0.004753 -0.003793 1.002124 -1.000000 0.000000 0.000000 255 0 0
0.004753 0.191297 0.982909 -1.000000 0.000000 0.000000 255 0 0
0.004753 0.378890 0.926003 -1.000000 0.000000 0.000000 255 0 0
0.004753 0.551777 0.833594 -1.000000 0.000000 0.000000 255 0 0
0.004753 0.703313 0.709231 -1.000000 0.000000 0.000000 255 0 0
0.004753 0.827676 0.557694 -1.000000 0.000000 0.000000 255 0 0
66.004761 0.920086 -0.380558 0.000000 0.956941 -0.290283 255 0 0
0.004753 0.920086 -0.380558 0.000000 0.956941 -0.290283 255 0 0
0.004753 0.976992 -0.192965 0.000000 0.956941 -0.290283 255 0 0
66.004761 0.976992 -0.192965 0.000000 0.956941 -0.290283 255 0 0
66.004761 0.976992 -0.192965 0.000000 0.995185 -0.098017 255 0 0
0.004753 0.976992 -0.192965 0.000000 0.995185 -0.098017 255 1 1
0.004753 0.996206 0.002124 0.000000 0.995185 -0.098017 255 0 0
66.004761 0.996206 0.002124 0.000000 0.995185 -0.098017 255 0 0
66.004761 0.976992 -0.192965 1.000000 0.000000 0.000000 255 0 0
66.004761 0.996206 0.002124 1.000000 0.000000 0.000000 255 0 0
66.004761 0.976992 0.197214 1.000000 0.000000 0.000000 255 0 0
66.004761 0.920086 0.384807 1.000000 0.000000 0.000000 255 0 0
66.004761 0.827676 0.557694 1.000000 0.000000 0.000000 255 0 0
66.004761 0.703313 0.709231 1.000000 0.000000 0.000000 255 0 0
66.004761 0.551777 0.833594 1.000000 0.000000 0.000000 255 0 0
66.004761 0.378890 0.926003 1.000000 0.000000 0.000000 255 0 0
66.004761 0.191297 0.982909 1.000000 0.000000 0.000000 255 0 0
66.004761 -0.003793 1.002124 1.000000 -0.000000 0.000000 255 0 0
66.004761 -0.198884 0.982909 1.000000 -0.000000 0.000000 255 0 0
66.004761 -0.386477 0.926003 1.000000 0.000000 0.000000 255 0 0
66.004761 -0.559364 0.833594 1.000000 0.000000 0.000000 255 0 0
66.004761 -0.710900 0.709231 1.000000 0.000000 0.000000 255 0 0
66.004761 -0.835263 0.557694 1.000000 0.000000 0.000000 255 0 0
66.004761 -0.927673 0.384807 1.000000 0.000000 0.000000 255 0 0
66.004761 -0.984579 0.197214 1.000000 0.000000 0.000000 255 0 0
66.004761 -1.003793 0.002124 1.000000 0.000000 -0.000000 255 0 0
66.004761 -0.984579 -0.192967 1.000000 0.000000 -0.000000 255 0 0
66.004761 -0.927673 -0.380560 1.000000 0.000000 0.000000 255 0 0
66.004761 -0.835263 -0.553447 1.000000 0.000000 0.000000 255 0 0
66.004761 -0.710900 -0.704983 1.000000 0.000000 0.000000 255 0 0
66.004761 -0.559363 -0.829346 1.000000 0.000000 0.000000 255 0 0
66.004761 -0.386476 -0.921756 1.000000 0.000000 0.000000 255 0 0
66.004761 -0.198883 -0.978662 1.000000 0.000000 0.000000 255 0 0
66.004761 -0.003793 -0.997876 1.000000 0.000000 0.000000 255 0 0
66.004761 0.191298 -0.978661 1.000000 0.000000 0.000000 255 0 0
66.004761 0.378891 -0.921755 1.000000 0.000000 0.000000 255 0 0
66.004761 0.551778 -0.829345 1.000000 0.000000 0.000000 255 0 0
66.004761 0.703314 -0.704982 1.000000 0.000000 0.000000 255 0 0
66.004761 0.827677 -0.553445 1.000000 0.000000 0.000000 255 0 0
66.004761 0.920086 -0.380558 1.000000 0.000000 0.000000 255 0 0
3 0 1 2
3 3 4 5
3 6 7 8
3 9 10 11
3 12 13 14
3 15 16 17
3 18 19 20
3 21 22 23
3 24 25 26
3 27 28 29
3 30 31 32
3 33 34 35
3 36 37 38
3 39 40 41
3 42 43 44
3 45 46 47
3 48 49 50
3 51 52 53
3 54 55 56
3 57 58 59
3 60 61 62
3 63 64 65
3 66 67 68
3 69 70 71
3 72 73 74
3 75 76 77
3 78 79 80
3 81 82 83
3 84 85 86
3 87 88 89
3 90 91 92
3 93 94 95
3 96 97 98
3 98 99 100
3 100 101 102
3 102 103 104
3 104 105 106
3 106 107 108
3 108 109 110
3 110 111 112
3 112 113 114
3 114 115 116
3 116 117 118
3 118 119 120
3 120 121 122
3 122 123 124
3 124 125 126
3 126 127 96
3 96 98 100
3 100 102 104
3 104 106 108
3 108 110 112
3 112 114 116
3 116 118 120
3 120 122 124
3 124 126 96
3 96 100 104
3 104 108 112
3 112 116 120
3 120 124 96
3 96 104 112
3 112 120 96
4 128 129 130 131
4 132 133 134 135
4 136 137 138 139
4 140 141 142 143
4 144 145 146 147
4 148 149 150 151
4 152 153 154 155
4 156 157 158 159
4 160 161 162 163
4 164 165 166 167
4 168 169 170 171
4 172 173 174 175
4 176 177 178 179
4 180 181 182 183
4 184 185 186 187
4 188 189 190 191
4 192 193 194 195
4 196 197 198 199
4 200 201 202 203
4 204 205 206 207
4 208 209 210 211
4 212 213 214 215
4 216 217 218 219
4 220 221 222 223
4 224 225 226 227
4 228 229 230 231
4 232 233 234 235
4 236 237 238 239
4 240 241 242 243
4 244 245 246 247
3 248 249 250
3 250 251 252
3 252 253 254
3 254 255 256
3 256 257 258
3 258 259 260
3 260 261 262
3 262 263 264
3 264 265 266
3 266 267 268
3 268 269 270
3 270 271 272
3 272 273 274
3 274 275 276
3 276 277 278
3 278 279 248
3 248 250 252
3 252 254 256
3 256 258 260
3 260 262 264
3 264 266 268
3 268 270 272
3 272 274 276
3 276 278 248
3 248 252 256
3 256 260 264
3 264 268 272
3 272 276 248
3 248 256 264
3 264 272 248
4 280 281 282 283
4 284 285 286 287
3 288 289 290
3 290 291 292
3 292 293 294
3 294 295 296
3 296 297 298
3 298 299 300
3 300 301 302
3 302 303 304
3 304 305 306
3 306 307 308
3 308 309 310
3 310 311 312
3 312 313 314
3 314 315 316
3 316 317 318
3 318 319 288
3 288 290 292
3 292 294 296
3 296 298 300
3 300 302 304
3 304 306 308
3 308 310 312
3 312 314 316
3 316 318 288
3 288 292 296
3 296 300 304
3 304 308 312
3 312 316 288
3 288 296 304
3 304 312 288
