ply
format ascii 1.0
comment Created by Blender 2.79 (sub 0) - www.blender.org, source file: ''
element vertex 320
property float x
property float y
property float z
property float nx
property float ny
property float nz
property uchar red
property uchar green
property uchar blue
element face 154
property list uchar uint vertex_indices
end_header
0.000001 66.086838 -4.913165 0.087754 0.445489 -0.890977 0 255 0
0.000000 75.913162 -0.000000 0.087754 0.445489 -0.890977 0 255 0
0.958511 66.086838 -4.818759 0.087754 0.445489 -0.890977 0 255 0
0.958511 66.086838 -4.818759 0.259888 0.445489 -0.856737 0 255 0
0.000000 75.913162 -0.000000 0.259888 0.445489 -0.856737 0 255 0
1.880187 66.086838 -4.539172 0.259888 0.445489 -0.856737 0 255 0
1.880187 66.086838 -4.539172 0.422036 0.445489 -0.789573 0 255 0
0.000000 75.913162 -0.000000 0.422036 0.445489 -0.789573 0 255 0
2.729609 66.086838 -4.085146 0.422036 0.445489 -0.789573 0 255 0
2.729609 66.086838 -4.085146 0.567965 0.445488 -0.692067 0 255 0
0.000000 75.913162 -0.000000 0.567965 0.445488 -0.692067 0 255 0
3.474133 66.086838 -3.474131 0.567965 0.445488 -0.692067 0 255 0
3.474133 66.086838 -3.474131 0.692067 0.445489 -0.567964 0 255 0
0.000000 75.913162 -0.000000 0.692067 0.445489 -0.567964 0 255 0
4.085148 66.086838 -2.729607 0.692067 0.445489 -0.567964 0 255 0
4.085148 66.086838 -2.729607 0.789573 0.445488 -0.422035 0 255 0
0.000000 75.913162 -0.000000 0.789573 0.445488 -0.422035 0 255 0
4.539172 66.086838 -1.880186 0.789573 0.445488 -0.422035 0 255 0
4.539172 66.086838 -1.880186 0.856737 0.445489 -0.259888 0 255 0
0.000000 75.913162 -0.000000 0.856737 0.445489 -0.259888 0 255 0
4.818759 66.086838 -0.958510 0.856737 0.445489 -0.259888 0 255 0
4.818759 66.086838 -0.958510 0.890977 0.445488 -0.087754 0 255 0
0.000000 75.913162 -0.000000 0.890977 0.445488 -0.087754 0 255 0
4.913165 66.086838 0.000000 0.890977 0.445488 -0.087754 0 255 0
4.913165 66.086838 0.000000 0.890977 0.445488 0.087753 0 255 0
0.000000 75.913162 -0.000000 0.890977 0.445488 0.087753 0 255 0
4.818760 66.086838 0.958511 0.890977 0.445488 0.087753 0 255 0
4.818760 66.086838 0.958511 0.856737 0.445489 0.259889 0 255 0
0.000000 75.913162 -0.000000 0.856737 0.445489 0.259889 0 255 0
4.539172 66.086838 1.880187 0.856737 0.445489 0.259889 0 255 0
4.539172 66.086838 1.880187 0.789573 0.445489 0.422036 0 255 0
0.000000 75.913162 -0.000000 0.789573 0.445489 0.422036 0 255 0
4.085147 66.086838 2.729609 0.789573 0.445489 0.422036 0 255 0
4.085147 66.086838 2.729609 0.692067 0.445489 0.567965 0 255 0
0.000000 75.913162 -0.000000 0.692067 0.445489 0.567965 0 255 0
3.474132 66.086838 3.474133 0.692067 0.445489 0.567965 0 255 0
3.474132 66.086838 3.474133 0.567964 0.445489 0.692067 0 255 0
0.000000 75.913162 -0.000000 0.567964 0.445489 0.692067 0 255 0
2.729607 66.086838 4.085148 0.567964 0.445489 0.692067 0 255 0
2.729607 66.086838 4.085148 0.422035 0.445488 0.789573 0 255 0
0.000000 75.913162 -0.000000 0.422035 0.445488 0.789573 0 255 0
1.880185 66.086838 4.539173 0.422035 0.445488 0.789573 0 255 0
1.880185 66.086838 4.539173 0.259888 0.445488 0.856737 0 255 0
0.000000 75.913162 -0.000000 0.259888 0.445488 0.856737 0 255 0
0.958509 66.086838 4.818760 0.259888 0.445488 0.856737 0 255 0
0.958509 66.086838 4.818760 0.087753 0.445488 0.890977 0 255 0
0.000000 75.913162 -0.000000 0.087753 0.445488 0.890977 0 255 0
-0.000002 66.086838 4.913165 0.087753 0.445488 0.890977 0 255 0
-0.000002 66.086838 4.913165 -0.087754 0.445489 0.890976 0 255 0
0.000000 75.913162 -0.000000 -0.087754 0.445489 0.890976 0 255 0
-0.958513 66.086838 4.818759 -0.087754 0.445489 0.890976 0 255 0
-0.958513 66.086838 4.818759 -0.259888 0.445489 0.856737 0 255 0
0.000000 75.913162 -0.000000 -0.259888 0.445489 0.856737 0 255 0
-1.880189 66.086838 4.539171 -0.259888 0.445489 0.856737 0 255 0
-1.880189 66.086838 4.539171 -0.422037 0.445489 0.789573 0 255 0
0.000000 75.913162 -0.000000 -0.422037 0.445489 0.789573 0 255 0
-2.729611 66.086838 4.085145 -0.422037 0.445489 0.789573 0 255 0
-2.729611 66.086838 4.085145 -0.567965 0.445489 0.692067 0 255 0
0.000000 75.913162 -0.000000 -0.567965 0.445489 0.692067 0 255 0
-3.474135 66.086838 3.474130 -0.567965 0.445489 0.692067 0 255 0
-3.474135 66.086838 3.474130 -0.692067 0.445489 0.567964 0 255 0
0.000000 75.913162 -0.000000 -0.692067 0.445489 0.567964 0 255 0
-4.085149 66.086838 2.729605 -0.692067 0.445489 0.567964 0 255 0
-4.085149 66.086838 2.729605 -0.789574 0.445488 0.422035 0 255 0
0.000000 75.913162 -0.000000 -0.789574 0.445488 0.422035 0 255 0
-4.539174 66.086838 1.880183 -0.789574 0.445488 0.422035 0 255 0
-4.539174 66.086838 1.880183 -0.856737 0.445489 0.259887 0 255 0
0.000000 75.913162 -0.000000 -0.856737 0.445489 0.259887 0 255 0
-4.818760 66.086838 0.958506 -0.856737 0.445489 0.259887 0 255 0
-4.818760 66.086838 0.958506 -0.890977 0.445489 0.087753 0 255 0
0.000000 75.913162 -0.000000 -0.890977 0.445489 0.087753 0 255 0
-4.913165 66.086838 -0.000005 -0.890977 0.445489 0.087753 0 255 0
-4.913165 66.086838 -0.000005 -0.890976 0.445488 -0.087755 0 255 0
0.000000 75.913162 -0.000000 -0.890976 0.445488 -0.087755 0 255 0
-4.818758 66.086838 -0.958516 -0.890976 0.445488 -0.087755 0 255 0
-4.818758 66.086838 -0.958516 -0.856737 0.445489 -0.259889 0 255 0
0.000000 75.913162 -0.000000 -0.856737 0.445489 -0.259889 0 255 0
-4.539170 66.086838 -1.880192 -0.856737 0.445489 -0.259889 0 255 0
-4.539170 66.086838 -1.880192 -0.789572 0.445489 -0.422037 0 255 0
0.000000 75.913162 -0.000000 -0.789572 0.445489 -0.422037 0 255 0
-4.085143 66.086838 -2.729613 -0.789572 0.445489 -0.422037 0 255 0
-4.085143 66.086838 -2.729613 -0.692066 0.445488 -0.567965 0 255 0
0.000000 75.913162 -0.000000 -0.692066 0.445488 -0.567965 0 255 0
-3.474127 66.086838 -3.474137 -0.692066 0.445488 -0.567965 0 255 0
-3.474127 66.086838 -3.474137 -0.567964 0.445488 -0.692067 0 255 0
0.000000 75.913162 -0.000000 -0.567964 0.445488 -0.692067 0 255 0
-2.729602 66.086838 -4.085151 -0.567964 0.445488 -0.692067 0 255 0
-2.729602 66.086838 -4.085151 -0.422034 0.445489 -0.789574 0 255 0
0.000000 75.913162 -0.000000 -0.422034 0.445489 -0.789574 0 255 0
-1.880180 66.086838 -4.539175 -0.422034 0.445489 -0.789574 0 255 0
-1.880180 66.086838 -4.539175 -0.259887 0.445488 -0.856737 0 255 0
0.000000 75.913162 -0.000000 -0.259887 0.445488 -0.856737 0 255 0
-0.958503 66.086838 -4.818761 -0.259887 0.445488 -0.856737 0 255 0
-0.958503 66.086838 -4.818761 -0.087753 0.445489 -0.890977 0 255 0
0.000000 75.913162 -0.000000 -0.087753 0.445489 -0.890977 0 255 0
0.000001 66.086838 -4.913165 -0.087753 0.445489 -0.890977 0 255 0
-0.958503 66.086838 -4.818761 -0.000000 -1.000000 0.000000 0 255 0
0.000001 66.086838 -4.913165 -0.000000 -1.000000 0.000000 0 255 0
0.958511 66.086838 -4.818759 -0.000000 -1.000000 0.000000 0 255 0
1.880187 66.086838 -4.539172 0.000000 -1.000000 0.000000 0 255 0
2.729609 66.086838 -4.085146 0.000000 -1.000000 0.000000 0 255 0
3.474133 66.086838 -3.474131 0.000000 -1.000000 0.000000 0 255 0
4.085148 66.086838 -2.729607 0.000000 -1.000000 0.000000 0 255 0
4.539172 66.086838 -1.880186 0.000000 -1.000000 0.000000 0 255 0
4.818759 66.086838 -0.958510 0.000000 -1.000000 0.000000 0 255 0
4.913165 66.086838 0.000000 0.000000 -1.000000 -0.000000 0 255 0
4.818760 66.086838 0.958511 0.000000 -1.000000 -0.000000 0 255 0
4.539172 66.086838 1.880187 0.000000 -1.000000 0.000000 0 255 0
4.085147 66.086838 2.729609 0.000000 -1.000000 0.000000 0 255 0
3.474132 66.086838 3.474133 0.000000 -1.000000 0.000000 0 255 0
2.729607 66.086838 4.085148 0.000000 -1.000000 0.000000 0 255 0
1.880185 66.086838 4.539173 0.000000 -1.000000 0.000000 0 255 0
0.958509 66.086838 4.818760 0.000000 -1.000000 0.000000 0 255 0
-0.000002 66.086838 4.913165 0.000000 -1.000000 0.000000 0 255 0
-0.958513 66.086838 4.818759 0.000000 -1.000000 0.000000 0 255 0
-1.880189 66.086838 4.539171 0.000000 -1.000000 0.000000 0 255 0
-2.729611 66.086838 4.085145 0.000000 -1.000000 0.000000 0 255 0
-3.474135 66.086838 3.474130 0.000000 -1.000000 0.000000 0 255 0
-4.085149 66.086838 2.729605 0.000000 -1.000000 0.000000 0 255 0
-4.539174 66.086838 1.880183 0.000000 -1.000000 0.000000 0 255 0
-4.818760 66.086838 0.958506 0.000000 -1.000000 0.000000 0 255 0
-4.913165 66.086838 -0.000005 0.000000 -1.000000 0.000000 0 255 0
-4.818758 66.086838 -0.958516 0.000000 -1.000000 0.000000 0 255 0
-4.539170 66.086838 -1.880192 0.000000 -1.000000 0.000000 0 255 0
-4.085143 66.086838 -2.729613 0.000000 -1.000000 0.000000 0 255 0
-3.474127 66.086838 -3.474137 0.000000 -1.000000 0.000000 0 255 0
-2.729602 66.086838 -4.085151 0.000000 -1.000000 0.000000 0 255 0
-1.880180 66.086838 -4.539175 0.000000 -1.000000 0.000000 0 255 0
-0.002124 66.104759 -0.996206 -0.098016 -0.000000 -0.995185 0 255 0
-0.002129 0.104752 -0.996203 -0.098016 -0.000000 -0.995185 0 255 0
-0.197219 0.104752 -0.976989 -0.098016 -0.000000 -0.995185 0 255 0
-0.197214 66.104759 -0.976992 -0.098016 -0.000000 -0.995185 0 255 0
-0.197214 66.104759 -0.976992 -0.290285 -0.000000 -0.956940 0 255 0
-0.197219 0.104752 -0.976989 -0.290285 -0.000000 -0.956940 0 255 0
-0.384813 0.104752 -0.920083 -0.290285 -0.000000 -0.956940 0 255 0
-0.384807 66.104759 -0.920086 -0.290285 -0.000000 -0.956940 0 255 0
-0.384807 66.104759 -0.920086 -0.471397 -0.000000 -0.881921 0 255 0
-0.384813 0.104752 -0.920083 -0.471397 -0.000000 -0.881921 0 255 0
-0.557699 0.104752 -0.827673 -0.471397 -0.000000 -0.881921 0 255 0
-0.557694 66.104759 -0.827676 -0.471397 -0.000000 -0.881921 0 255 0
-0.557694 66.104759 -0.827676 -0.634394 0.000000 -0.773010 0 255 0
-0.557699 0.104752 -0.827673 -0.634394 0.000000 -0.773010 0 255 0
-0.709236 0.104752 -0.703310 -0.634394 0.000000 -0.773010 0 255 0
-0.709231 66.104759 -0.703313 -0.634394 0.000000 -0.773010 0 255 0
-0.709231 66.104759 -0.703313 -0.773010 0.000000 -0.634394 0 255 0
-0.709236 0.104752 -0.703310 -0.773010 0.000000 -0.634394 0 255 0
-0.833599 0.104752 -0.551774 -0.773010 0.000000 -0.634394 0 255 0
-0.833594 66.104759 -0.551777 -0.773010 0.000000 -0.634394 0 255 0
-0.833594 66.104759 -0.551777 -0.881921 0.000000 -0.471396 0 255 0
-0.833599 0.104752 -0.551774 -0.881921 0.000000 -0.471396 0 255 0
-0.926009 0.104752 -0.378887 -0.881921 0.000000 -0.471396 0 255 0
-0.926004 66.104759 -0.378890 -0.881921 0.000000 -0.471396 0 255 0
-0.926004 66.104759 -0.378890 -0.956940 0.000000 -0.290285 0 255 0
-0.926009 0.104752 -0.378887 -0.956940 0.000000 -0.290285 0 255 0
-0.982915 0.104752 -0.191294 -0.956940 0.000000 -0.290285 0 255 0
-0.982910 66.104759 -0.191297 -0.956940 0.000000 -0.290285 0 255 0
-0.982910 66.104759 -0.191297 -0.995185 0.000000 -0.098016 0 255 0
-0.982915 0.104752 -0.191294 -0.995185 0.000000 -0.098016 0 255 0
-1.002129 0.104752 0.003796 -0.995185 0.000000 -0.098016 0 255 0
-1.002124 66.104759 0.003793 -0.995185 0.000000 -0.098016 0 255 0
-1.002124 66.104759 0.003793 -0.995185 0.000000 0.098016 0 255 0
-1.002129 0.104752 0.003796 -0.995185 0.000000 0.098016 0 255 0
-0.982915 0.104752 0.198887 -0.995185 0.000000 0.098016 0 255 0
-0.982910 66.104759 0.198884 -0.995185 0.000000 0.098016 0 255 0
-0.982910 66.104759 0.198884 -0.956940 0.000000 0.290285 0 255 0
-0.982915 0.104752 0.198887 -0.956940 0.000000 0.290285 0 255 0
-0.926009 0.104752 0.386480 -0.956940 0.000000 0.290285 0 255 0
-0.926004 66.104759 0.386477 -0.956940 0.000000 0.290285 0 255 0
-0.926004 66.104759 0.386477 -0.881922 0.000000 0.471396 0 255 0
-0.926009 0.104752 0.386480 -0.881922 0.000000 0.471396 0 255 0
-0.833599 0.104752 0.559367 -0.881922 0.000000 0.471396 0 255 0
-0.833594 66.104759 0.559364 -0.881922 0.000000 0.471396 0 255 0
-0.833594 66.104759 0.559364 -0.773010 0.000000 0.634393 0 255 0
-0.833599 0.104752 0.559367 -0.773010 0.000000 0.634393 0 255 0
-0.709236 0.104752 0.710903 -0.773010 0.000000 0.634393 0 255 0
-0.709231 66.104759 0.710900 -0.773010 0.000000 0.634393 0 255 0
-0.709231 66.104759 0.710900 -0.634394 0.000000 0.773010 0 255 0
-0.709236 0.104752 0.710903 -0.634394 0.000000 0.773010 0 255 0
-0.557700 0.104752 0.835266 -0.634394 0.000000 0.773010 0 255 0
-0.557694 66.104759 0.835263 -0.634394 0.000000 0.773010 0 255 0
-0.557694 66.104759 0.835263 -0.471397 0.000000 0.881921 0 255 0
-0.557700 0.104752 0.835266 -0.471397 0.000000 0.881921 0 255 0
-0.384813 0.104752 0.927676 -0.471397 0.000000 0.881921 0 255 0
-0.384808 66.104759 0.927673 -0.471397 0.000000 0.881921 0 255 0
-0.384808 66.104759 0.927673 -0.290284 0.000000 0.956941 0 255 0
-0.384813 0.104752 0.927676 -0.290284 0.000000 0.956941 0 255 0
-0.197219 0.104752 0.984582 -0.290284 0.000000 0.956941 0 255 0
-0.197214 66.104759 0.984579 -0.290284 0.000000 0.956941 0 255 0
-0.197214 66.104759 0.984579 -0.098017 0.000000 0.995185 0 255 0
-0.197219 0.104752 0.984582 -0.098017 0.000000 0.995185 0 255 0
-0.002129 0.104752 1.003797 -0.098017 0.000000 0.995185 0 255 0
-0.002124 66.104759 1.003794 -0.098017 0.000000 0.995185 0 255 0
-0.002124 66.104759 1.003794 0.098018 0.000000 0.995185 0 255 0
-0.002129 0.104752 1.003797 0.098018 0.000000 0.995185 0 255 0
0.192962 0.104752 0.984582 0.098018 0.000000 0.995185 0 255 0
0.192966 66.104759 0.984579 0.098018 0.000000 0.995185 0 255 0
0.192966 66.104759 0.984579 0.290285 0.000000 0.956940 0 255 0
0.192962 0.104752 0.984582 0.290285 0.000000 0.956940 0 255 0
0.380555 0.104752 0.927676 0.290285 0.000000 0.956940 0 255 0
0.380560 66.104759 0.927673 0.290285 0.000000 0.956940 0 255 0
0.380560 66.104759 0.927673 0.471397 0.000000 0.881921 0 255 0
0.380555 0.104752 0.927676 0.471397 0.000000 0.881921 0 255 0
0.553442 0.104752 0.835266 0.471397 0.000000 0.881921 0 255 0
0.553446 66.104759 0.835263 0.471397 0.000000 0.881921 0 255 0
0.553446 66.104759 0.835263 0.634394 -0.000000 0.773010 0 255 0
0.553442 0.104752 0.835266 0.634394 -0.000000 0.773010 0 255 0
0.704978 0.104752 0.710903 0.634394 -0.000000 0.773010 0 255 0
0.704983 66.104759 0.710900 0.634394 -0.000000 0.773010 0 255 0
0.704983 66.104759 0.710900 0.773011 -0.000000 0.634393 0 255 0
0.704978 0.104752 0.710903 0.773011 -0.000000 0.634393 0 255 0
0.829341 0.104752 0.559366 0.773011 -0.000000 0.634393 0 255 0
0.829346 66.104759 0.559364 0.773011 -0.000000 0.634393 0 255 0
0.829346 66.104759 0.559364 0.881922 -0.000000 0.471396 0 255 0
0.829341 0.104752 0.559366 0.881922 -0.000000 0.471396 0 255 0
0.921751 0.104752 0.386479 0.881922 -0.000000 0.471396 0 255 0
0.921756 66.104759 0.386476 0.881922 -0.000000 0.471396 0 255 0
0.921756 66.104759 0.386476 0.956941 -0.000000 0.290284 0 255 0
0.921751 0.104752 0.386479 0.956941 -0.000000 0.290284 0 255 0
0.978656 0.104752 0.198886 0.956941 -0.000000 0.290284 0 255 0
0.978661 66.104759 0.198883 0.956941 -0.000000 0.290284 0 255 0
0.978661 66.104759 0.198883 0.995185 -0.000000 0.098016 0 255 0
0.978656 0.104752 0.198886 0.995185 -0.000000 0.098016 0 255 0
0.997871 0.104752 0.003796 0.995185 -0.000000 0.098016 0 255 0
0.997876 66.104759 0.003793 0.995185 -0.000000 0.098016 0 255 0
0.997876 66.104759 0.003793 0.995185 -0.000000 -0.098018 0 255 0
0.997871 0.104752 0.003796 0.995185 -0.000000 -0.098018 0 255 0
0.978656 0.104752 -0.191295 0.995185 -0.000000 -0.098018 0 255 0
0.978661 66.104759 -0.191297 0.995185 -0.000000 -0.098018 0 255 0
0.978661 66.104759 -0.191297 0.956940 -0.000000 -0.290285 0 255 0
0.978656 0.104752 -0.191295 0.956940 -0.000000 -0.290285 0 255 0
0.921750 0.104752 -0.378888 0.956940 -0.000000 -0.290285 0 255 0
0.921755 66.104759 -0.378891 0.956940 -0.000000 -0.290285 0 255 0
0.921755 66.104759 -0.378891 0.881921 -0.000000 -0.471398 0 255 0
0.921750 0.104752 -0.378888 0.881921 -0.000000 -0.471398 0 255 0
0.829340 0.104752 -0.551774 0.881921 -0.000000 -0.471398 0 255 0
0.829345 66.104759 -0.551777 0.881921 -0.000000 -0.471398 0 255 0
0.829345 66.104759 -0.551777 0.773010 -0.000000 -0.634394 0 255 0
0.829340 0.104752 -0.551774 0.773010 -0.000000 -0.634394 0 255 0
0.704977 0.104752 -0.703311 0.773010 -0.000000 -0.634394 0 255 0
0.704982 66.104759 -0.703314 0.773010 -0.000000 -0.634394 0 255 0
0.704982 66.104759 -0.703314 0.634392 -0.000000 -0.773011 0 255 0
0.704977 0.104752 -0.703311 0.634392 -0.000000 -0.773011 0 255 0
0.553440 0.104752 -0.827674 0.634392 -0.000000 -0.773011 0 255 0
0.553445 66.104759 -0.827676 0.634392 -0.000000 -0.773011 0 255 0
0.553445 66.104759 -0.827676 0.471395 -0.000000 -0.881922 0 255 0
0.553440 0.104752 -0.827674 0.471395 -0.000000 -0.881922 0 255 0
0.380553 0.104752 -0.920083 0.471395 -0.000000 -0.881922 0 255 0
0.380558 66.104759 -0.920086 0.471395 -0.000000 -0.881922 0 255 0
-0.384813 0.104752 -0.920083 0.000000 -1.000000 0.000000 0 255 0
-0.197219 0.104752 -0.976989 0.000000 -1.000000 0.000000 0 255 0
-0.002129 0.104752 -0.996203 0.000000 -1.000000 0.000000 0 255 0
0.192960 0.104752 -0.976989 0.000000 -1.000000 0.000000 0 255 0
0.380553 0.104752 -0.920083 0.000000 -1.000000 0.000000 0 255 0
0.553440 0.104752 -0.827674 0.000000 -1.000000 0.000000 0 255 0
0.704977 0.104752 -0.703311 0.000000 -1.000000 0.000000 0 255 0
0.829340 0.104752 -0.551774 0.000000 -1.000000 0.000000 0 255 0
0.921750 0.104752 -0.378888 0.000000 -1.000000 0.000000 0 255 0
0.978656 0.104752 -0.191295 0.000000 -1.000000 0.000000 0 255 0
0.997871 0.104752 0.003796 0.000000 -1.000000 0.000000 0 255 0
0.978656 0.104752 0.198886 0.000000 -1.000000 0.000000 0 255 0
0.921751 0.104752 0.386479 0.000000 -1.000000 0.000000 0 255 0
0.829341 0.104752 0.559366 0.000000 -1.000000 0.000000 0 255 0
0.704978 0.104752 0.710903 0.000000 -1.000000 0.000000 0 255 0
0.553442 0.104752 0.835266 0.000000 -1.000000 0.000000 0 255 0
0.380555 0.104752 0.927676 0.000000 -1.000000 0.000000 0 255 0
0.192962 0.104752 0.984582 0.000000 -1.000000 0.000000 0 255 0
-0.002129 0.104752 1.003797 0.000000 -1.000000 0.000000 0 255 0
-0.197219 0.104752 0.984582 0.000000 -1.000000 0.000000 0 255 0
-0.384813 0.104752 0.927676 0.000000 -1.000000 0.000000 0 255 0
-0.557700 0.104752 0.835266 0.000000 -1.000000 0.000000 0 255 0
-0.709236 0.104752 0.710903 0.000000 -1.000000 0.000000 0 255 0
-0.833599 0.104752 0.559367 0.000000 -1.000000 0.000000 0 255 0
-0.926009 0.104752 0.386480 0.000000 -1.000000 0.000000 0 255 0
-0.982915 0.104752 0.198887 0.000000 -1.000000 0.000000 0 255 0
-1.002129 0.104752 0.003796 0.000000 -1.000000 0.000000 0 255 0
-0.982915 0.104752 -0.191294 0.000000 -1.000000 0.000000 0 255 0
-0.926009 0.104752 -0.378887 0.000000 -1.000000 0.000000 0 255 0
-0.833599 0.104752 -0.551774 0.000000 -1.000000 0.000000 0 255 0
-0.709236 0.104752 -0.703310 0.000000 -1.000000 0.000000 0 255 0
-0.557699 0.104752 -0.827673 0.000000 -1.000000 0.000000 0 255 0
0.380558 66.104759 -0.920086 0.290284 -0.000000 -0.956941 0 255 0
0.380553 0.104752 -0.920083 0.290284 -0.000000 -0.956941 0 255 0
0.192960 0.104752 -0.976989 0.290284 -0.000000 -0.956941 0 255 0
0.192965 66.104759 -0.976992 0.290284 -0.000000 -0.956941 0 255 0
0.192965 66.104759 -0.976992 0.098017 -0.000000 -0.995185 0 255 0
0.192960 0.104752 -0.976989 0.098017 -0.000000 -0.995185 0 255 0
-0.002129 0.104752 -0.996203 0.098017 -0.000000 -0.995185 0 255 0
-0.002124 66.104759 -0.996206 0.098017 -0.000000 -0.995185 0 255 0
0.192965 66.104759 -0.976992 -0.000000 1.000000 0.000000 0 255 0
-0.002124 66.104759 -0.996206 -0.000000 1.000000 0.000000 0 255 0
-0.197214 66.104759 -0.976992 -0.000000 1.000000 0.000000 0 255 0
-0.384807 66.104759 -0.920086 0.000000 1.000000 0.000000 0 255 0
-0.557694 66.104759 -0.827676 0.000000 1.000000 0.000000 0 255 0
-0.709231 66.104759 -0.703313 0.000000 1.000000 0.000000 0 255 0
-0.833594 66.104759 -0.551777 0.000000 1.000000 0.000000 0 255 0
-0.926004 66.104759 -0.378890 0.000000 1.000000 0.000000 0 255 0
-0.982910 66.104759 -0.191297 0.000000 1.000000 0.000000 0 255 0
-1.002124 66.104759 0.003793 0.000000 1.000000 0.000000 0 255 0
-0.982910 66.104759 0.198884 0.000000 1.000000 0.000000 0 255 0
-0.926004 66.104759 0.386477 0.000000 1.000000 0.000000 0 255 0
-0.833594 66.104759 0.559364 0.000000 1.000000 0.000000 0 255 0
-0.709231 66.104759 0.710900 0.000000 1.000000 0.000000 0 255 0
-0.557694 66.104759 0.835263 0.000000 1.000000 0.000000 0 255 0
-0.384808 66.104759 0.927673 0.000000 1.000000 0.000000 0 255 0
-0.197214 66.104759 0.984579 0.000000 1.000000 0.000000 0 255 0
-0.002124 66.104759 1.003794 0.000000 1.000000 0.000000 0 255 0
0.192966 66.104759 0.984579 0.000000 1.000000 0.000000 0 255 0
0.380560 66.104759 0.927673 0.000000 1.000000 0.000000 0 255 0
0.553446 66.104759 0.835263 0.000000 1.000000 0.000000 0 255 0
0.704983 66.104759 0.710900 0.000000 1.000000 0.000000 0 255 0
0.829346 66.104759 0.559364 0.000000 1.000000 0.000000 0 255 0
0.921756 66.104759 0.386476 0.000000 1.000000 0.000000 0 255 0
0.978661 66.104759 0.198883 0.000000 1.000000 0.000000 0 255 0
0.997876 66.104759 0.003793 0.000000 1.000000 -0.000000 0 255 0
0.978661 66.104759 -0.191297 0.000000 1.000000 -0.000000 0 255 0
0.921755 66.104759 -0.378891 0.000000 1.000000 0.000000 0 255 0
0.829345 66.104759 -0.551777 0.000000 1.000000 0.000000 0 255 0
0.704982 66.104759 -0.703314 0.000000 1.000000 0.000000 0 255 0
0.553445 66.104759 -0.827676 0.000000 1.000000 0.000000 0 255 0
0.380558 66.104759 -0.920086 0.000000 1.000000 0.000000 0 255 0
3 0 1 2
3 3 4 5
3 6 7 8
3 9 10 11
3 12 13 14
3 15 16 17
3 18 19 20
3 21 22 23
3 24 25 26
3 27 28 29
3 30 31 32
3 33 34 35
3 36 37 38
3 39 40 41
3 42 43 44
3 45 46 47
3 48 49 50
3 51 52 53
3 54 55 56
3 57 58 59
3 60 61 62
3 63 64 65
3 66 67 68
3 69 70 71
3 72 73 74
3 75 76 77
3 78 79 80
3 81 82 83
3 84 85 86
3 87 88 89
3 90 91 92
3 93 94 95
3 96 97 98
3 98 99 100
3 100 101 102
3 102 103 104
3 104 105 106
3 106 107 108
3 108 109 110
3 110 111 112
3 112 113 114
3 114 115 116
3 116 117 118
3 118 119 120
3 120 121 122
3 122 123 124
3 124 125 126
3 126 127 96
3 96 98 100
3 100 102 104
3 104 106 108
3 108 110 112
3 112 114 116
3 116 118 120
3 120 122 124
3 124 126 96
3 96 100 104
3 104 108 112
3 112 116 120
3 120 124 96
3 96 104 112
3 112 120 96
4 128 129 130 131
4 132 133 134 135
4 136 137 138 139
4 140 141 142 143
4 144 145 146 147
4 148 149 150 151
4 152 153 154 155
4 156 157 158 159
4 160 161 162 163
4 164 165 166 167
4 168 169 170 171
4 172 173 174 175
4 176 177 178 179
4 180 181 182 183
4 184 185 186 187
4 188 189 190 191
4 192 193 194 195
4 196 197 198 199
4 200 201 202 203
4 204 205 206 207
4 208 209 210 211
4 212 213 214 215
4 216 217 218 219
4 220 221 222 223
4 224 225 226 227
4 228 229 230 231
4 232 233 234 235
4 236 237 238 239
4 240 241 242 243
4 244 245 246 247
3 248 249 250
3 250 251 252
3 252 253 254
3 254 255 256
3 256 257 258
3 258 259 260
3 260 261 262
3 262 263 264
3 264 265 266
3 266 267 268
3 268 269 270
3 270 271 272
3 272 273 274
3 274 275 276
3 276 277 278
3 278 279 248
3 248 250 252
3 252 254 256
3 256 258 260
3 260 262 264
3 264 266 268
3 268 270 272
3 272 274 276
3 276 278 248
3 248 252 256
3 256 260 264
3 264 268 272
3 272 276 248
3 248 256 264
3 264 272 248
4 280 281 282 283
4 284 285 286 287
3 288 289 290
3 290 291 292
3 292 293 294
3 294 295 296
3 296 297 298
3 298 299 300
3 300 301 302
3 302 303 304
3 304 305 306
3 306 307 308
3 308 309 310
3 310 311 312
3 312 313 314
3 314 315 316
3 316 317 318
3 318 319 288
3 288 290 292
3 292 294 296
3 296 298 300
3 300 302 304
3 304 306 308
3 308 310 312
3 312 314 316
3 316 318 288
3 288 292 296
3 296 300 304
3 304 308 312
3 312 316 288
3 288 296 304
3 304 312 288
